<?xml version="1.0" encoding="UTF-8" standalone="no"?>
<!DOCTYPE svg PUBLIC "-//W3C//DTD SVG 1.1//EN" "http://www.w3.org/Graphics/SVG/1.1/DTD/svg11.dtd">
<!-- Created with Vectornator (http://vectornator.io/) -->
<svg height="500.0pt" stroke-miterlimit="10" style="fill-rule:nonzero;clip-rule:evenodd;stroke-linecap:round;stroke-linejoin:round;" version="1.1" viewBox="0 0 500 500" width="500.0pt" xml:space="preserve" xmlns="http://www.w3.org/2000/svg" xmlns:xlink="http://www.w3.org/1999/xlink">
<defs/>
<clipPath id="ArtboardFrame">
<rect height="500" width="500" x="0" y="0"/>
</clipPath>
<g clip-path="url(#ArtboardFrame)" id="Untitled">
<g opacity="1">
<clipPath clip-rule="nonzero" id="ClipPath">
<path d="M134.667 345.333L365.333 345.333L365.333 345.333L365.333 500L365.333 500L134.667 500L134.667 500L134.667 345.333L134.667 345.333Z"/>
</clipPath>
<g clip-path="url(#ClipPath)">
<path d="M157.01 391.351L157.01 477.706L141.406 477.706L141.406 391.351L157.01 391.351Z" fill="#1d1d1b" fill-rule="nonzero" opacity="1" stroke="none"/>
<path d="M196.546 479.351C191.307 479.351 186.4 477.94 181.817 475.122C177.244 472.304 173.609 468.393 170.9 463.393C168.202 458.383 166.859 452.789 166.859 446.622C166.859 440.278 168.171 434.601 170.796 429.601C173.421 424.591 176.963 420.7 181.421 417.935C185.88 415.159 190.801 413.768 196.192 413.768C203.619 413.768 210.156 416.581 215.796 422.206L215.796 415.393L231.4 415.393L231.4 477.706L215.796 477.706L215.796 471.143C212.973 473.883 210.015 475.935 206.921 477.31C203.838 478.669 200.38 479.351 196.546 479.351ZM199.359 465.039C202.567 465.039 205.484 464.278 208.109 462.747C210.734 461.221 212.786 459.034 214.275 456.185C215.76 453.325 216.505 450.054 216.505 446.372C216.505 442.778 215.76 439.591 214.275 436.81C212.786 434.034 210.755 431.888 208.171 430.372C205.588 428.846 202.65 428.081 199.359 428.081C195.994 428.081 193.046 428.903 190.505 430.539C187.963 432.179 186.005 434.388 184.63 437.164C183.265 439.945 182.588 443.054 182.588 446.497C182.588 450.013 183.307 453.179 184.755 455.997C186.197 458.82 188.192 461.034 190.734 462.643C193.275 464.242 196.15 465.039 199.359 465.039Z" fill="#1d1d1b" fill-rule="nonzero" opacity="1" stroke="none"/>
<path d="M281.023 479.351C277.189 479.351 273.741 478.685 270.689 477.351C267.632 476.018 264.658 473.95 261.773 471.143L261.773 477.706L246.168 477.706L246.168 391.351L261.773 391.351L261.773 422.206C267.408 416.581 273.944 413.768 281.377 413.768C286.694 413.768 291.596 415.159 296.085 417.935C300.585 420.7 304.158 424.591 306.814 429.601C309.481 434.601 310.814 440.278 310.814 446.622C310.814 452.789 309.444 458.383 306.71 463.393C303.971 468.393 300.314 472.304 295.731 475.122C291.158 477.94 286.257 479.351 281.023 479.351ZM278.21 465.039C281.403 465.039 284.293 464.242 286.877 462.643C289.46 461.034 291.471 458.82 292.918 455.997C294.377 453.179 295.106 450.013 295.106 446.497C295.106 443.054 294.398 439.945 292.981 437.164C291.575 434.388 289.606 432.179 287.064 430.539C284.523 428.903 281.569 428.081 278.21 428.081C274.918 428.081 271.96 428.846 269.335 430.372C266.721 431.888 264.689 434.034 263.231 436.81C261.783 439.591 261.064 442.778 261.064 446.372C261.064 450.054 261.804 453.304 263.293 456.122C264.778 458.929 266.835 461.117 269.46 462.685C272.085 464.258 275.002 465.039 278.21 465.039Z" fill="#1d1d1b" fill-rule="nonzero" opacity="1" stroke="none"/>
<path d="M338.019 479.351C333.487 479.351 329.404 478.456 325.769 476.664C322.128 474.862 318.941 472.195 316.206 468.664L325.831 458.101C327.706 460.226 329.831 461.976 332.206 463.351C334.592 464.716 336.81 465.393 338.852 465.393C340.81 465.393 342.446 464.909 343.769 463.935C345.102 462.95 345.769 461.747 345.769 460.331C345.769 459.403 345.487 458.57 344.935 457.831C344.394 457.081 343.519 456.299 342.31 455.476C341.102 454.659 339.321 453.659 336.977 452.476C332.352 450.133 328.727 447.945 326.102 445.914C323.487 443.872 321.571 441.742 320.352 439.518C319.144 437.284 318.54 434.679 318.54 431.706C318.54 428.497 319.399 425.508 321.123 422.726C322.842 419.95 325.232 417.763 328.29 416.164C331.342 414.57 334.821 413.768 338.727 413.768C342.795 413.768 346.607 414.653 350.165 416.414C353.732 418.164 356.769 420.721 359.269 424.081L349.644 433.831C347.769 431.945 345.946 430.513 344.185 429.539C342.42 428.57 340.644 428.081 338.852 428.081C337.211 428.081 335.857 428.414 334.79 429.081C333.732 429.737 333.206 430.653 333.206 431.831C333.206 432.929 333.633 433.831 334.498 434.539C335.357 435.237 336.81 436.054 338.852 436.997C344.237 439.581 348.461 441.95 351.519 444.101C354.571 446.242 356.821 448.549 358.269 451.018C359.711 453.476 360.435 456.429 360.435 459.872C360.435 463.554 359.508 466.883 357.665 469.851C355.831 472.825 353.211 475.153 349.81 476.831C346.404 478.508 342.477 479.351 338.019 479.351Z" fill="#1d1d1b" fill-rule="nonzero" opacity="1" stroke="none"/>
</g>
</g>
<path d="M116.094 46.9375C109.995 46.9375 104.125 49.375 99.8125 53.6875C97.6562 55.8437 95.9896 58.3607 94.8438 61.125C94.8402 61.1335 94.8473 61.1477 94.8438 61.1562C93.7053 63.9129 93.0938 66.8955 93.0938 69.9375L93.0938 162.438L106.75 157.25L171.469 210.031L174.688 208.781L188.781 126.125L226.438 111.844L208.062 223.594L300.75 299.375L261.25 314.344L191.75 257.531L188.5 258.75L174.188 347.406L138.969 360.781L383.906 360.781C388.48 360.781 392.937 359.409 396.688 356.906C397.94 356.071 399.109 355.111 400.188 354.031C404.5 349.719 406.906 343.88 406.906 337.781L406.906 169.781C406.746 169.963 406.631 170.163 406.469 170.344C398.76 178.927 388.156 185.781 374.656 190.906L339.062 204.406L365.75 274.688L328.438 288.875L256.875 100.281L329.75 72.625C339.875 68.7813 349.43 66.7271 358.406 66.5C361.399 66.4243 364.323 66.5495 367.188 66.875C378.656 68.1823 388.531 72.3646 396.812 79.4062C400.594 82.6127 403.917 86.3697 406.906 90.5625L406.906 69.9375C406.906 63.8333 404.5 58 400.188 53.6875C396.96 50.4603 392.852 48.2664 388.438 47.375C388.427 47.373 388.416 47.377 388.406 47.375C386.931 47.0791 385.431 46.9375 383.906 46.9375L116.094 46.9375ZM350.344 100.688C345.989 100.924 341.242 102.035 336.062 104L305.375 115.625L327.844 174.875L358.531 163.219C379.25 155.359 385.875 141.573 378.406 121.875C372.77 107.031 363.408 99.9768 350.344 100.688ZM93.0938 193.375L93.0938 337.781C93.0938 343.88 95.5 349.719 99.8125 354.031C100.891 355.111 102.062 356.072 103.312 356.906C107.063 359.409 111.52 360.781 116.094 360.781L136.188 360.781L155.062 243.719L93.0938 193.375Z" fill="#004aad" fill-rule="nonzero" opacity="1" stroke="none"/>
</g>
</svg>
